<svg width="21" height="28" viewBox="0 0 21 28" fill="none" xmlns="http://www.w3.org/2000/svg">
<path d="M3.38906 26.3877C5.22719 26.907 7.65504 27.193 10.2254 27.193C12.7957 27.193 15.2235 26.907 17.0617 26.3877C19.3105 25.7525 20.4507 24.8329 20.4507 23.6546C20.4507 22.4764 19.3105 21.5569 17.0617 20.9216C16.5624 20.7806 16.0195 20.6569 15.4423 20.5514C15.1288 21.093 14.8004 21.6505 14.4569 22.224C15.0959 22.3199 15.6957 22.4374 16.2404 22.5762C17.8954 22.9977 18.5001 23.4723 18.6244 23.6547C18.5 23.8372 17.8955 24.3117 16.2405 24.7332C14.6741 25.1322 12.6587 25.3597 10.5361 25.3801C10.4333 25.3877 10.3297 25.392 10.2254 25.392C10.121 25.392 10.0175 25.3877 9.9146 25.3801C7.79195 25.3597 5.77658 25.1322 4.21015 24.7332C2.55516 24.3117 1.9506 23.8371 1.82631 23.6547C1.9506 23.4723 2.55522 22.9977 4.21021 22.5762C4.75495 22.4375 5.35481 22.3199 5.99378 22.224C5.65036 21.6506 5.32191 21.093 5.00843 20.5514C4.43121 20.657 3.88822 20.7806 3.38906 20.9216C1.14025 21.5569 0 22.4764 0 23.6546C0 24.8329 1.14025 25.7524 3.38906 26.3877Z" fill="#006BBD"/>
<path d="M10.2253 23.5809C11.0313 23.5809 11.7635 23.1702 12.184 22.4822C15.1305 17.6616 18.6427 11.3083 18.6427 8.41734C18.6427 3.776 14.8667 0 10.2253 0C5.58386 0 1.80786 3.776 1.80786 8.41734C1.80786 11.3083 5.32012 17.6616 8.26652 22.4822C8.68702 23.1702 9.41926 23.5809 10.2253 23.5809Z" fill="#006BBD"/>
<path d="M14.8031 7.7221L13.779 7.46608C13.7199 7.26915 13.6411 7.07221 13.5427 6.89497C13.7002 6.63895 14.0153 6.08753 14.0153 6.08753C14.0744 5.98906 14.0547 5.8512 13.9759 5.77243L13.2276 5.02407C13.1488 4.9453 13.0109 4.9256 12.9125 4.98468L12.105 5.45733C11.9278 5.35886 11.7309 5.28009 11.5339 5.22101L11.2779 4.19694C11.2582 4.07877 11.14 4 11.0219 4H9.95842C9.84026 4 9.7221 4.07877 9.70241 4.19694C9.70241 4.19694 9.52516 4.9256 9.44639 5.22101C9.22976 5.28009 9.03282 5.37856 8.85558 5.47702L8.02845 4.98468C7.92998 4.9256 7.79212 4.9453 7.71335 5.02407L6.96499 5.77243C6.88621 5.8512 6.86652 5.98906 6.9256 6.08753L7.43764 6.95405C7.35886 7.1116 7.28009 7.28884 7.22101 7.46608L6.19694 7.7221C6.07877 7.74179 6 7.85996 6 7.97812V9.04158C6 9.15974 6.07877 9.2779 6.19694 9.29759L7.22101 9.55361C7.28009 9.75055 7.35886 9.94748 7.45733 10.1247L7.00438 10.8928C6.9453 10.9912 6.96499 11.1291 7.04376 11.2079L7.79212 11.9562C7.8709 12.035 8.00875 12.0547 8.10722 11.9956C8.10722 11.9956 8.61926 11.6805 8.87527 11.5427C9.05252 11.6411 9.24945 11.7199 9.44639 11.779L9.70241 12.8031C9.7221 12.9212 9.84026 13 9.95842 13H11.0219C11.14 13 11.2385 12.9212 11.2779 12.8031L11.5339 11.779C11.7309 11.7199 11.9278 11.6411 12.1247 11.523C12.3807 11.6805 12.9125 11.9956 12.9125 11.9956C13.0109 12.0547 13.1488 12.035 13.2276 11.9562L13.9759 11.2079C14.0547 11.1291 14.0744 10.9912 14.0153 10.8928L13.5427 10.105C13.6411 9.92779 13.7199 9.75055 13.779 9.55361L14.8031 9.29759C14.9212 9.2779 15 9.15974 15 9.04158V7.97812C15 7.85996 14.9212 7.74179 14.8031 7.7221Z" fill="white"/>
</svg>
