<svg width="32" height="28" viewBox="0 0 32 28" fill="none" xmlns="http://www.w3.org/2000/svg">
<path d="M18.9247 24.3889H13.0355C11.9634 24.3889 11.9634 22.7689 13.0355 22.7689H18.9247C19.9968 22.7689 19.9968 24.3889 18.9247 24.3889Z" fill="#006BBD"/>
<path d="M23.1834 27.6322H8.77623C7.70415 27.6322 7.70415 26.0122 8.77623 26.0122H23.1834C24.2555 26.0122 24.2555 27.6322 23.1834 27.6322Z" fill="#006BBD"/>
<path d="M15.1701 0.36792C11.5996 0.56124 8.38445 2.00448 5.91089 4.2336L8.99789 7.3206C10.6427 5.89068 12.7498 4.92156 15.1701 4.74228V0.36792Z" fill="#006BBD"/>
<path d="M5.27775 14.6383C5.44983 12.2785 6.37971 10.1876 7.85391 8.46756L4.75971 5.37336C2.51547 7.866 1.08843 11.011 0.900146 14.6383H5.27775Z" fill="#006BBD"/>
<path d="M5.27055 16.2583H0.900146C1.06935 19.4436 2.20695 22.3718 4.04727 24.7349C4.32843 25.0956 4.86339 25.1348 5.21223 24.8389L7.30311 23.0677C7.64295 22.7797 7.67643 22.2836 7.40751 21.9283C6.19683 20.3288 5.42859 18.3787 5.27055 16.2583Z" fill="#006BBD"/>
<path d="M28.915 7.632C28.1842 8.52948 27.0995 9.8604 25.887 11.3454C26.4158 12.6112 26.7258 13.9903 26.7258 15.4483C26.7258 17.8981 25.9061 20.1564 24.5258 21.964C24.2652 22.3052 24.339 22.7966 24.6673 23.0731L26.7488 24.8252C27.102 25.1226 27.6427 25.0819 27.926 24.7172C29.9154 22.1573 31.0998 18.941 31.0998 15.448C31.1002 12.542 30.2866 9.88704 28.915 7.632Z" fill="#006BBD"/>
<path d="M27.9509 6.24852C25.3031 2.83176 21.2538 0.609839 16.7902 0.368999V4.74624C19.5661 4.95792 22.4177 6.25176 24.4423 8.84088C24.4423 8.84088 14.7979 15.9998 14.4549 16.3433C13.6661 17.132 13.6661 18.4111 14.4549 19.1999C15.2436 19.9886 16.5227 19.9886 17.3115 19.1999C17.8227 18.6883 27.9509 6.24852 27.9509 6.24852ZM27.9106 6.2982C27.9109 6.2982 27.9109 6.29784 27.9109 6.29784L27.9106 6.2982Z" fill="#006BBD"/>
</svg>
