<svg width="30" height="26" viewBox="0 0 30 26" fill="none" xmlns="http://www.w3.org/2000/svg">
<path d="M14.099 25.3921C14.0987 25.3921 14.0991 25.3921 14.0989 25.3921C10.209 25.3921 6.9363 25.2096 4.38641 24.9859C2.81464 24.8481 1.83049 23.2209 2.43307 21.7627C4.10452 17.7177 6.16813 13.7218 8.58899 9.84644C10.2368 7.20849 11.8276 4.98503 13.1728 3.23565C14.1109 2.01562 15.9463 2.01526 16.8845 3.23524C18.223 4.97589 19.8052 7.18675 21.4449 9.80847C23.8534 13.6595 25.9092 17.6303 27.5779 21.6504C28.1838 23.1099 27.1958 24.7394 25.6217 24.8778C21.7344 25.2194 17.8714 25.3921 14.099 25.3921Z" fill="#D69535"/>
<path d="M25.8889 13.9411V13.7715C25.8889 13.1734 26.352 12.6774 26.9488 12.6364L28.7844 12.5105C29.4419 12.4654 30 12.9866 30 13.6456V14.067C30 14.726 29.4418 15.2472 28.7844 15.2021L26.9488 15.0762C26.3521 15.0353 25.8889 14.5393 25.8889 13.9411Z" fill="#D69535"/>
<path d="M24.4724 8.48525L24.3877 8.33835C24.0886 7.82032 24.2417 7.15921 24.738 6.8254L26.2646 5.7986C26.8115 5.43081 27.5554 5.60308 27.8849 6.17378L28.0956 6.53876C28.4252 7.10946 28.2023 7.83989 27.6104 8.12958L25.9578 8.93829C25.4206 9.20126 24.7715 9.00327 24.4724 8.48525Z" fill="#D69535"/>
<path d="M20.5179 4.46858L20.371 4.3838C19.853 4.08474 19.6551 3.43563 19.918 2.89839L20.7267 1.24581C21.0164 0.653896 21.7468 0.431123 22.3175 0.760595L22.6825 0.971298C23.2532 1.30083 23.4255 2.04474 23.0577 2.59159L22.0309 4.11825C21.6971 4.61454 21.036 4.76765 20.5179 4.46858Z" fill="#D69535"/>
<path d="M4.11105 13.9411V13.7715C4.11105 13.1734 3.64793 12.6774 3.05115 12.6364L1.21559 12.5105C0.558164 12.4654 0 12.9866 0 13.6456V14.067C0 14.726 0.558164 15.2472 1.21559 15.2021L3.05115 15.0762C3.64787 15.0353 4.11105 14.5393 4.11105 13.9411Z" fill="#D69535"/>
<path d="M5.52738 8.48525L5.61216 8.33835C5.91123 7.82032 5.75812 7.15921 5.26183 6.8254L3.73517 5.7986C3.18832 5.43081 2.44441 5.60308 2.11488 6.17378L1.90418 6.53876C1.57464 7.10946 1.79748 7.83989 2.38939 8.12958L4.04197 8.93829C4.57922 9.20126 5.22832 9.00327 5.52738 8.48525Z" fill="#D69535"/>
<path d="M9.48214 4.46858L9.62904 4.3838C10.1471 4.08474 10.345 3.43563 10.0821 2.89839L9.27337 1.24581C8.98368 0.653896 8.25326 0.431123 7.68255 0.760595L7.31757 0.971298C6.74687 1.30083 6.5746 2.04474 6.9424 2.59159L7.96919 4.11825C8.303 4.61454 8.96411 4.76765 9.48214 4.46858Z" fill="#D69535"/>
<path d="M14.3497 8.55392C14.7874 8.50991 15.2251 8.50991 15.6628 8.55392C16.2166 8.60964 16.6405 9.07212 16.6609 9.62829C16.7277 11.4476 16.7277 13.2668 16.6609 15.0861C16.6406 15.6423 16.2166 16.1048 15.6628 16.1605C15.2251 16.2045 14.7874 16.2045 14.3497 16.1605C13.7959 16.1048 13.372 15.6423 13.3516 15.0861C13.2848 13.2668 13.2848 11.4476 13.3516 9.62829C13.372 9.07206 13.7959 8.60958 14.3497 8.55392Z" fill="white"/>
<path d="M14.3814 18.1571C14.798 18.1372 15.2145 18.1372 15.631 18.1571C16.2051 18.1846 16.6661 18.6467 16.692 19.2208C16.7173 19.7805 16.7173 20.3402 16.692 20.8999C16.6661 21.474 16.2051 21.9361 15.631 21.9636C15.2145 21.9835 14.798 21.9835 14.3814 21.9636C13.8074 21.9361 13.3464 21.474 13.3205 20.8999C13.2952 20.3402 13.2952 19.7805 13.3205 19.2208C13.3464 18.6467 13.8074 18.1846 14.3814 18.1571Z" fill="white"/>
</svg>
