<svg width="30" height="30" viewBox="0 0 30 30" fill="none" xmlns="http://www.w3.org/2000/svg">
<path d="M24.8385 14.11H25.847C25.6618 11.9366 24.7973 9.95417 23.4671 8.37625L22.7574 9.08591C22.414 9.42939 21.8571 9.42939 21.5136 9.08591C21.1701 8.74248 21.1701 8.18557 21.5136 7.84208L22.2233 7.13242C20.6453 5.80217 18.663 4.93772 16.4895 4.75255V5.76107C16.443 6.92802 14.7765 6.92714 14.7305 5.76107V4.75255C12.5571 4.93772 10.5747 5.80217 8.99675 7.13242L9.70641 7.84208C10.0499 8.18551 10.0499 8.74242 9.70641 9.08591C9.36292 9.42939 8.80607 9.42939 8.46258 9.08591L7.75292 8.37625C6.42267 9.95417 5.55822 11.9365 5.37305 14.11H6.38157C7.54852 14.1565 7.54764 15.823 6.38157 15.869H5.37305C5.55822 18.0425 6.42267 20.0248 7.75286 21.6028L8.46258 20.8931C8.80607 20.5496 9.36292 20.5495 9.70641 20.8931C10.0499 21.2365 10.0499 21.7933 9.70641 22.1369L8.99669 22.8466C10.5746 24.1768 12.5569 25.0413 14.7304 25.2264V24.2179C14.7769 23.0509 16.4434 23.0518 16.4895 24.2179V25.2264C18.6629 25.0412 20.6453 24.1768 22.2232 22.8466L21.5134 22.1368C21.17 21.7933 21.17 21.2365 21.5135 20.8929C21.8569 20.5496 22.4138 20.5496 22.7573 20.893L23.467 21.6027C24.7972 20.0248 25.6617 18.0425 25.8469 15.869H24.8383C23.6715 15.8226 23.6724 14.156 24.8385 14.11ZM18.6067 17.9862C18.2632 18.3297 17.7063 18.3297 17.3628 17.9862L14.9881 15.6115C14.8232 15.4466 14.7305 15.2228 14.7305 14.9896V11.1197C14.777 9.95271 16.4435 9.95359 16.4895 11.1197V14.6253L18.6066 16.7423C18.9502 17.0858 18.9502 17.6427 18.6067 17.9862Z" fill="#DB4124"/>
<path d="M28.8784 19.93C28.4346 19.7325 27.9148 19.9323 27.7173 20.376C21.7512 33.3265 2.55319 29.2602 2.35847 14.9893C2.31191 4.20155 14.8365 -2.11373 23.4741 4.32422L22.8048 4.30487C21.6368 4.31976 21.5899 5.98288 22.7541 6.06321L26.2855 6.16512C26.5765 6.17368 26.8551 6.03636 27.0253 5.79889C27.1957 5.56147 27.2371 5.25493 27.1357 4.98081L25.9101 1.66735C25.7416 1.21181 25.2358 0.97915 24.7801 1.14761C24.3245 1.31612 24.0918 1.82209 24.2603 2.27762L24.4845 2.88361C18.7278 -1.46822 10.0187 -0.833433 4.99593 4.37558C-4.41651 13.8068 2.28711 29.9875 15.6101 30C21.5334 30.0001 26.9167 26.5031 29.3245 21.0911C29.5219 20.6473 29.3222 20.1275 28.8784 19.93Z" fill="#DB4124"/>
</svg>
